<mxfile host="app.diagrams.net" modified="2022-03-13T19:55:50.955Z" agent="5.0 (X11; Linux x86_64) AppleWebKit/537.36 (KHTML, like Gecko) Chrome/99.0.4844.51 Safari/537.36" etag="pz-QnAuCzRj0NnHTb-Zx" version="17.1.2" type="github">
  <diagram id="brO6tw0-eXcrd5FC1vhd" name="Page-1">
    <mxGraphModel dx="2062" dy="1096" grid="1" gridSize="10" guides="1" tooltips="1" connect="1" arrows="1" fold="1" page="1" pageScale="1" pageWidth="850" pageHeight="1100" math="0" shadow="0">
      <root>
        <mxCell id="0" />
        <mxCell id="1" parent="0" />
        <mxCell id="vjGnSAfNu6QoqcPNFarV-1" value="" style="whiteSpace=wrap;html=1;aspect=fixed;" vertex="1" parent="1">
          <mxGeometry x="10" y="30" width="130" height="130" as="geometry" />
        </mxCell>
      </root>
    </mxGraphModel>
  </diagram>
</mxfile>
